<?xml version="1.0" standalone="no"?>
<!DOCTYPE svg PUBLIC "-//W3C//DTD SVG 20010904//EN"
 "http://www.w3.org/TR/2001/REC-SVG-20010904/DTD/svg10.dtd">
<svg version="1.0" xmlns="http://www.w3.org/2000/svg"
 width="260.000000pt" height="260.000000pt" viewBox="0 0 260.000000 260.000000"
 preserveAspectRatio="xMidYMid meet">
<metadata>
Created by potrace 1.14, written by Peter Selinger 2001-2017
</metadata>
<g transform="translate(0.000000,260.000000) scale(0.100000,-0.100000)"
fill="#000000" stroke="none">
<path d="M0 1300 l0 -1300 1300 0 1300 0 0 1300 0 1300 -1300 0 -1300 0 0
-1300z m688 251 c-172 -62 -214 -114 -146 -181 38 -38 108 -72 192 -94 32 -9
60 -17 62 -18 8 -8 -224 -238 -239 -238 -30 0 -176 77 -250 131 -152 111 -169
230 -44 303 63 37 212 84 334 105 158 28 184 26 91 -8z m592 -51 c0 -38 3 -70
8 -70 4 0 36 32 71 71 l63 70 72 -3 71 -3 0 -150 0 -150 -72 -3 -73 -3 0 73
-1 73 -69 -72 -68 -73 -66 0 -66 0 0 73 -1 72 -67 -73 -67 -73 -87 1 c-49 0
-88 3 -88 7 0 4 66 74 147 155 l148 148 72 0 73 0 0 -70z m492 -17 l3 -88 58
88 58 87 84 0 c47 0 85 -3 85 -6 0 -3 -53 -73 -117 -155 l-118 -148 -97 -1
-98 0 0 155 0 155 70 0 69 0 3 -87z m653 37 l0 -45 -87 -1 c-97 -2 -148 -20
-181 -66 -32 -43 -18 -58 57 -58 l65 0 3 38 3 37 70 0 70 0 0 -80 0 -80 -199
-3 c-166 -2 -203 0 -222 13 -43 28 -28 113 31 183 64 77 163 112 305 109 l85
-2 0 -45z m-1452 -359 c15 -15 22 -34 22 -62 0 -58 -29 -79 -106 -79 l-59 0 0
79 c0 90 2 92 79 86 27 -2 51 -10 64 -24z m175 7 c3 -15 -4 -18 -37 -18 -30 0
-41 -4 -41 -15 0 -11 11 -15 36 -15 28 0 35 -3 32 -17 -2 -12 -14 -19 -36 -21
-49 -5 -42 -32 8 -32 29 0 40 -4 40 -15 0 -12 -14 -15 -65 -15 l-65 0 0 85 0
86 62 -3 c50 -2 63 -6 66 -20z m147 2 c19 -15 20 -74 2 -89 -8 -6 -28 -14 -45
-17 -22 -5 -32 -12 -32 -25 0 -14 -7 -19 -25 -19 -25 0 -25 1 -25 79 0 54 4
81 13 85 20 9 96 0 112 -14z m133 8 c5 -7 17 -39 26 -70 9 -32 19 -64 22 -73
5 -11 0 -15 -19 -15 -16 0 -26 7 -30 20 -3 13 -14 20 -31 20 -15 0 -30 -8 -36
-20 -10 -19 -50 -29 -50 -12 0 15 43 137 53 150 5 6 20 12 32 12 12 0 27 -6
33 -12z m196 -18 c21 -20 21 -21 3 -52 -18 -31 -18 -32 3 -60 l21 -28 -27 0
c-16 0 -34 10 -46 25 -11 14 -24 25 -29 25 -5 0 -9 -11 -9 -25 0 -18 -5 -25
-20 -25 -18 0 -20 7 -20 79 0 54 4 81 13 85 24 11 90 -3 111 -24z m166 10 c0
-15 -7 -20 -25 -20 -24 0 -25 -2 -25 -65 0 -63 -1 -65 -25 -65 -24 0 -25 2
-25 65 0 63 -1 65 -25 65 -18 0 -25 5 -25 20 0 18 7 20 75 20 68 0 75 -2 75
-20z m68 -45 c3 -63 15 -80 44 -64 14 8 18 22 18 69 0 53 2 60 19 60 23 0 29
-30 20 -103 -6 -56 -18 -67 -73 -67 -61 0 -76 20 -76 102 0 66 1 69 23 66 20
-3 22 -10 25 -63z m236 55 c33 -12 44 -54 21 -80 -16 -18 -16 -20 5 -49 l21
-31 -25 0 c-16 0 -32 9 -42 25 -9 14 -20 25 -25 25 -5 0 -9 -11 -9 -25 0 -20
-5 -25 -25 -25 -25 0 -25 1 -25 79 0 54 4 81 13 84 21 9 64 7 91 -3z m194 -12
c3 -15 -4 -18 -42 -18 -34 0 -46 -4 -46 -15 0 -11 11 -15 41 -15 33 0 40 -3
37 -17 -2 -13 -14 -19 -41 -21 -51 -4 -43 -26 11 -30 29 -2 42 -8 42 -18 0
-11 -15 -14 -65 -14 l-65 0 0 85 0 86 62 -3 c50 -2 63 -6 66 -20z m126 16 c30
-12 18 -34 -18 -34 -50 0 -52 -15 -6 -33 34 -13 40 -20 40 -44 0 -41 -17 -53
-72 -53 -41 0 -48 3 -48 20 0 16 6 20 31 18 42 -4 49 18 9 27 -34 7 -54 36
-45 64 10 31 69 50 109 35z"/>
<path d="M880 1106 c0 -25 5 -48 10 -51 16 -10 60 23 60 45 0 24 -26 50 -51
50 -16 0 -19 -7 -19 -44z"/>
<path d="M1220 1125 c0 -18 5 -25 20 -25 15 0 20 7 20 25 0 18 -5 25 -20 25
-15 0 -20 -7 -20 -25z"/>
<path d="M1387 1136 c-11 -27 -8 -36 8 -36 16 0 17 5 6 34 -7 18 -8 18 -14 2z"/>
<path d="M1542 1133 c4 -22 43 -25 43 -3 0 8 -11 16 -23 18 -19 3 -23 0 -20
-15z"/>
<path d="M2040 1129 c0 -14 5 -19 17 -17 26 5 29 38 4 38 -15 0 -21 -6 -21
-21z"/>
</g>
</svg>
