<?xml version="1.0" standalone="no"?>
<!DOCTYPE svg PUBLIC "-//W3C//DTD SVG 20010904//EN"
 "http://www.w3.org/TR/2001/REC-SVG-20010904/DTD/svg10.dtd">
<svg version="1.0" xmlns="http://www.w3.org/2000/svg"
 width="1024.000000pt" height="1024.000000pt" viewBox="0 0 1024.000000 1024.000000"
 preserveAspectRatio="xMidYMid meet">
<metadata>
Created by potrace 1.14, written by Peter Selinger 2001-2017
</metadata>
<g transform="translate(0.000000,1024.000000) scale(0.100000,-0.100000)"
fill="#000000" stroke="none">
<path d="M2690 6403 c-1054 -111 -1928 -344 -2362 -628 -106 -70 -237 -205
-277 -286 -173 -353 114 -791 802 -1223 225 -141 529 -296 787 -402 l115 -47
554 559 554 558 -134 28 c-743 153 -1201 429 -1226 740 -6 73 12 120 73 187
132 147 571 343 1084 485 115 32 122 39 30 29z"/>
<path d="M3804 5782 c-303 -306 -613 -621 -688 -699 l-138 -143 424 0 425 0
299 342 299 343 3 -343 2 -342 298 0 297 1 320 345 320 346 3 -346 2 -346 325
0 325 0 0 700 0 700 -318 0 -317 0 -320 -335 -320 -336 -3 336 -2 335 -343 0
-342 -1 -551 -557z"/>
<path d="M6610 5640 l0 -700 438 0 438 0 25 28 c14 15 259 322 544 682 285
360 525 663 533 673 14 16 -5 17 -382 17 l-397 0 -226 -342 c-124 -189 -251
-381 -282 -428 l-56 -85 -3 428 -2 427 -315 0 -315 0 0 -700z"/>
<path d="M9566 6329 c-227 -20 -505 -83 -646 -147 -365 -165 -660 -525 -710
-870 -26 -178 42 -294 205 -350 45 -15 132 -17 938 -20 l887 -3 0 376 0 375
-315 0 -315 0 0 -180 0 -180 -302 0 c-283 0 -305 1 -335 20 -39 23 -49 64 -33
135 35 158 175 299 369 374 150 58 194 63 579 68 l352 5 0 204 0 204 -292 -1
c-161 -1 -333 -5 -382 -10z"/>
</g>
</svg>
